<svg width="42" height="42" viewBox="0 0 42 42" fill="none" xmlns="http://www.w3.org/2000/svg">
<path d="M31.7 3.3C26.7 5.7 23.2 8.2 22.1 10C20.5 12.7 20.3 12.7 19.3 11.1C18.6 10.1 16.6 9 14.8 8.8C13 8.5 10.6 7.9 9.6 7.5C7.9 6.8 7.8 7 8.4 9.1C8.8 10.4 9.4 12.8 9.7 14.5C10 16.1 10.8 18 11.6 18.6C12.8 19.6 12.6 20 10.6 21.4C9.2 22.2 6.4 26.6 4.2 31C0.499998 38.5 0.299998 39.1 2 40C4.3 41.2 7.7 41.3 8.4 40.1C8.7 39.7 10 39.5 11.3 39.7C12.9 40 14.6 39.3 16.5 37.6C18 36.2 19.9 35 20.6 35C21.3 35 22.5 34 23.1 32.8C24.3 30.6 24.4 30.8 26 35.4C27.8 40.9 29.8 42.7 32.6 41.5C33.7 41.1 35.5 40.7 36.8 40.6C39.5 40.4 41.1 38.4 40.9 35.5C40.8 34.4 41 32.7 41.5 31.7C42.5 29.3 40.5 27.2 35.9 25.8C31.5 24.5 31.1 23.6 34 22C35.1 21.4 36 20.1 36 19.1C36 18.1 37 16.6 38.2 15.8C39.6 14.8 40.5 13.1 40.7 10.9C40.8 9 41.2 6.4 41.5 5C41.9 3.6 41.6 1.8 40.8 0.899999C39.6 -0.500001 38.7 -0.200001 31.7 3.3ZM39.8 4.2C39.6 5.5 38.5 6.9 37.3 7.5C34.5 8.7 34.3 10 37 10C38.1 10 39 10.6 39 11.3C39 13.4 36.8 15 33.8 15C32.3 15 31 15.4 31 16C31 16.5 31.7 17 32.5 17C34.5 17 34.4 19.9 32.5 20.7C31.6 21 30 20.4 29 19.5C26.5 17.3 26.4 18.8 28.8 22.9C29.9 25 32 26.5 35.3 27.7C40 29.4 40.9 30.3 38.9 31.5C38.3 31.9 38.2 33.4 38.5 35.1C39 37.3 38.7 38.2 37.5 38.6C36.6 39 35.4 38.8 34.7 38.1C33.1 36.5 32 36.7 32 38.6C32 41.8 29.4 39.2 27.6 34.2C26.6 31.3 25.3 29 24.7 29C24.1 29 22.8 28.3 21.8 27.3C19.3 25 18.2 26.5 20.6 29.1C22.4 31.1 22.4 31.2 20.5 32.6C18.7 33.9 18.5 33.9 18.2 32.6C17.7 30.1 16 30.8 16 33.5C16 34.9 15.2 36.4 14.1 37C11.4 38.4 11 38.3 11 36C11 33.3 9.7 33.5 8.5 36.3C7.7 38.2 3 40.2 3 38.6C3 38.3 4.6 34.7 6.6 30.6C9.4 24.8 10.9 22.9 13.1 22.1C16.5 20.9 16.8 19.7 13.9 17.9C12.8 17.1 11.7 15.3 11.6 13.7C11.3 11.3 11.6 11 14.1 11C15.9 11 17.5 11.8 18.2 13C20 15.8 21.9 15.5 23.1 12.2C23.8 10.1 25.9 8.5 31.3 5.8C39.9 1.4 40.2 1.4 39.8 4.2Z" fill="#19BEF2"/>
</svg>
